<svg width="144" height="124" viewBox="0 0 144 124" fill="none" xmlns="http://www.w3.org/2000/svg">
<path d="M121.19 57.8996H140.354C140.143 56.9326 139.405 56.1771 138.456 55.9353C138.516 55.7238 138.531 55.4972 138.531 55.2705C138.531 53.7747 137.326 52.5508 135.819 52.5508C135.397 52.5508 134.991 52.6566 134.629 52.8228C134.056 51.5536 132.776 50.6621 131.299 50.6621C129.717 50.6621 128.377 51.6593 127.864 53.0645C127.412 52.7623 126.885 52.5961 126.298 52.5961C124.731 52.5961 123.45 53.8804 123.45 55.4518C123.45 55.5878 123.465 55.7238 123.48 55.8598C122.35 55.9656 121.431 56.7966 121.19 57.8996Z" fill="#EAEAEA"/>
<path d="M8.8739 65.6806H29.1225C28.8965 64.6682 28.1131 63.8523 27.1187 63.6106C27.179 63.3839 27.2091 63.1573 27.2091 62.9004C27.2091 61.3139 25.9285 60.0296 24.3466 60.0296C23.8946 60.0296 23.4728 60.1354 23.0961 60.3167C22.4935 58.972 21.1376 58.0352 19.5707 58.0352C17.8984 58.0352 16.4822 59.0928 15.9398 60.5736C15.4728 60.2563 14.9003 60.0749 14.2826 60.0749C12.6253 60.0749 11.2694 61.4197 11.2694 63.0968C11.2694 63.2479 11.2844 63.3839 11.2995 63.5199C10.1093 63.6408 9.13002 64.5171 8.8739 65.6806Z" fill="#EAEAEA"/>
<path d="M118.719 11.2117H142.84C142.569 10.0029 141.635 9.0359 140.445 8.74882C140.505 8.47685 140.55 8.20488 140.55 7.9178C140.55 6.02911 139.028 4.50305 137.145 4.50305C136.603 4.50305 136.106 4.62393 135.654 4.85057C134.93 3.24896 133.318 2.13086 131.465 2.13086C129.477 2.13086 127.789 3.38495 127.141 5.15276C126.584 4.77502 125.906 4.56349 125.183 4.56349C123.209 4.56349 121.597 6.18021 121.597 8.15955C121.597 8.32576 121.612 8.50707 121.627 8.67328C120.181 8.77904 119.021 9.83671 118.719 11.2117Z" fill="#EAEAEA"/>
<path d="M0 23.3596H21.9661C21.725 22.2566 20.8814 21.3803 19.7815 21.1083C19.8418 20.8666 19.8719 20.6097 19.8719 20.3528C19.8719 18.6304 18.4859 17.2403 16.7684 17.2403C16.2863 17.2403 15.8192 17.346 15.4124 17.5576C14.7495 16.1071 13.2881 15.0947 11.6008 15.0947C9.79284 15.0947 8.25612 16.2431 7.66855 17.8447C7.15631 17.5123 6.53861 17.3158 5.87571 17.3158C4.0678 17.3158 2.6064 18.7814 2.6064 20.5946C2.6064 20.7457 2.62147 20.9119 2.63654 21.063C1.34087 21.1536 0.271186 22.1055 0 23.3596Z" fill="#EAEAEA"/>
<path d="M2.13928 118.459H18.998C18.8172 117.613 18.1543 116.948 17.3257 116.737C17.3709 116.555 17.4011 116.359 17.4011 116.148C17.4011 114.833 16.3314 113.76 15.0206 113.76C14.644 113.76 14.2975 113.851 13.9811 114.002C13.4688 112.884 12.354 112.113 11.0432 112.113C9.65717 112.113 8.48203 112.99 8.03005 114.229C7.63834 113.972 7.1713 113.821 6.65906 113.821C5.27299 113.821 4.15811 114.939 4.15811 116.329C4.15811 116.45 4.17318 116.571 4.18825 116.691C3.17883 116.767 2.35021 117.507 2.13928 118.459Z" fill="#EAEAEA"/>
<path d="M47.6084 8.05337H68.9869C68.7459 6.98059 67.9323 6.13446 66.8626 5.86249C66.9229 5.62074 66.953 5.37899 66.953 5.12212C66.953 3.44497 65.5971 2.10022 63.9398 2.10022C63.4728 2.10022 63.0208 2.20599 62.614 2.40241C61.9662 0.982118 60.55 0 58.8928 0C57.1301 0 55.6385 1.11811 55.066 2.67439C54.5689 2.34198 53.9662 2.14555 53.3184 2.14555C51.5707 2.14555 50.1395 3.56584 50.1395 5.33366C50.1395 5.48475 50.1545 5.63585 50.1696 5.78694C48.9041 5.89271 47.8796 6.8295 47.6084 8.05337Z" fill="#EAEAEA"/>
<path d="M127.141 113.427H144C143.819 112.581 143.156 111.916 142.328 111.705C142.373 111.523 142.403 111.327 142.403 111.115C142.403 109.801 141.333 108.728 140.023 108.728C139.646 108.728 139.299 108.819 138.983 108.97C138.471 107.852 137.356 107.081 136.045 107.081C134.659 107.081 133.484 107.957 133.032 109.196C132.64 108.94 132.173 108.788 131.661 108.788C130.275 108.788 129.16 109.907 129.16 111.297C129.16 111.417 129.175 111.538 129.19 111.659C128.166 111.72 127.352 112.46 127.141 113.427Z" fill="#EAEAEA"/>
<path d="M73.9286 118.595C72.648 119.426 70.825 119.426 69.5444 118.595L50.0642 105.963L35.9474 96.8066C33.4164 95.1748 34.8778 91.9111 38.132 91.9111H71.729H105.326C108.58 91.9111 110.042 95.1597 107.511 96.8066L93.3938 105.963L73.9286 118.595Z" fill="#D67412"/>
<path d="M62.1922 118.005C61.9512 118.293 61.5745 118.293 61.3335 118.005L53.921 109.061L47.1112 100.871C46.7346 100.403 46.9907 99.6172 47.5331 99.6172H61.7854H76.0378C76.5802 99.6172 76.8514 100.418 76.4596 100.871L69.6499 109.061L62.1922 118.005Z" fill="#FC842C"/>
<path d="M80.6479 118.58C80.3918 118.897 79.9699 118.897 79.7138 118.58L71.518 108.728L64.0151 99.6928C63.5933 99.1791 63.8946 98.3027 64.4822 98.3027H80.1809H95.8796C96.4822 98.3027 96.7684 99.1791 96.3466 99.6928L88.8438 108.728L80.6479 118.58Z" fill="#FC842C"/>
<path d="M71.5934 123.808C71.3824 124.064 71.051 124.064 70.8401 123.808L64.2563 115.89L58.2148 108.638C57.8683 108.23 58.1094 107.52 58.5915 107.52H71.2167H83.8419C84.3241 107.52 84.5651 108.23 84.2186 108.638L78.1772 115.89L71.5934 123.808Z" fill="#FC842C"/>
<path d="M86.1321 101.4H82.5313C82.1095 101.4 81.7629 101.007 81.7629 100.524C81.7629 100.04 82.1095 99.6475 82.5313 99.6475H86.1321C86.5539 99.6475 86.9004 100.04 86.9004 100.524C86.9004 101.007 86.5539 101.4 86.1321 101.4Z" fill="#F99943"/>
<path d="M88.5278 101.4H88.0154C87.5934 101.4 87.2468 101.007 87.2468 100.524C87.2468 100.04 87.5934 99.6475 88.0154 99.6475H88.5278C88.9497 99.6475 89.2963 100.04 89.2963 100.524C89.2963 101.007 88.9497 101.4 88.5278 101.4Z" fill="#F99943"/>
<path d="M70.9608 104.165H66.7122C66.215 104.165 65.8082 103.712 65.8082 103.138C65.8082 102.564 66.215 102.11 66.7122 102.11H70.9608C71.4579 102.11 71.8647 102.564 71.8647 103.138C71.8647 103.712 71.4579 104.165 70.9608 104.165Z" fill="#F99943"/>
<path d="M73.7936 104.165H73.1908C72.6935 104.165 72.2866 103.712 72.2866 103.138C72.2866 102.564 72.6935 102.11 73.1908 102.11H73.7936C74.2909 102.11 74.6978 102.564 74.6978 103.138C74.6978 103.712 74.2909 104.165 73.7936 104.165Z" fill="#F99943"/>
<path d="M71.5189 117.915H69.0625C68.7762 117.915 68.535 117.643 68.535 117.326C68.535 117.008 68.7762 116.736 69.0625 116.736H71.5189C71.8052 116.736 72.0463 117.008 72.0463 117.326C72.0463 117.643 71.8203 117.915 71.5189 117.915Z" fill="#F99943"/>
<path d="M73.1607 117.915H72.8141C72.5277 117.915 72.2866 117.643 72.2866 117.326C72.2866 117.008 72.5277 116.736 72.8141 116.736H73.1607C73.447 116.736 73.6881 117.008 73.6881 117.326C73.6881 117.643 73.4621 117.915 73.1607 117.915Z" fill="#F99943"/>
<path d="M58.7122 103.29C58.7122 104.015 58.1999 104.589 57.5521 104.589H54.0568C53.424 104.589 52.8967 104 52.8967 103.29C52.8967 102.564 53.409 101.99 54.0568 101.99H57.5521C58.1999 101.99 58.7122 102.564 58.7122 103.29Z" fill="#F99943"/>
<path d="M61.3186 105.163C61.3186 105.888 60.8064 106.462 60.1585 106.462H56.6633C56.0305 106.462 55.5032 105.873 55.5032 105.163C55.5032 104.437 56.0154 103.863 56.6633 103.863H60.1585C60.8064 103.863 61.3186 104.437 61.3186 105.163Z" fill="#F99943"/>
<path d="M81.4616 106.205C81.4616 105.646 81.0548 105.178 80.5576 105.178H77.8006C77.3034 105.178 76.8966 105.631 76.8966 106.205C76.8966 106.764 77.3034 107.233 77.8006 107.233H80.5576C81.0548 107.233 81.4616 106.779 81.4616 106.205Z" fill="#F99943"/>
<path d="M83.5105 104.739C83.5105 104.18 83.1037 103.712 82.6065 103.712H79.8645C79.3674 103.712 78.9606 104.165 78.9606 104.739C78.9606 105.298 79.3674 105.767 79.8645 105.767H82.6065C83.1037 105.752 83.5105 105.298 83.5105 104.739Z" fill="#F99943"/>
<path d="M82.3956 109.741C81.793 109.741 81.2958 110.3 81.2958 110.98C81.2958 111.177 81.341 111.358 81.4164 111.524H80.6932C80.0906 111.524 79.5934 112.083 79.5934 112.763C79.5934 113.458 80.0906 114.002 80.6932 114.002H84.4145L87.9851 109.711H82.3956V109.741Z" fill="#F99943"/>
<path d="M61.0471 110.633H60.3239C60.3992 110.466 60.4444 110.285 60.4444 110.089C60.4444 109.394 59.9473 108.85 59.3446 108.85H53.7401L53.9209 109.076L57.2957 113.141H61.0471C61.6497 113.141 62.1469 112.582 62.1469 111.902C62.1469 111.192 61.6497 110.633 61.0471 110.633Z" fill="#F99943"/>
<path d="M72.5725 109.076C72.5725 109.725 72.1055 110.239 71.533 110.239H66.7119C66.1394 110.239 65.6724 109.71 65.6724 109.076C65.6724 108.426 66.1394 107.912 66.7119 107.912H71.533C72.1206 107.912 72.5725 108.426 72.5725 109.076Z" fill="#F99943"/>
<path d="M70.6748 110.919C70.6748 110.541 70.946 110.239 71.2776 110.239H68.9869C69.3185 110.239 69.5897 110.541 69.5897 110.919C69.5897 111.297 69.3185 111.599 68.9869 111.599H71.2776C70.931 111.599 70.6748 111.297 70.6748 110.919Z" fill="#F99943"/>
<path d="M74.7873 112.627C74.7873 113.201 74.3805 113.655 73.8833 113.655H68.1734C67.6762 113.655 67.2694 113.201 67.2694 112.627C67.2694 112.053 67.6762 111.6 68.1734 111.6H73.8833C74.3805 111.6 74.7873 112.068 74.7873 112.627Z" fill="#F99943"/>
<path d="M113.778 84.6135C113.642 84.3718 113.416 84.2207 113.16 84.2207H30.3127C30.0565 84.2207 29.8306 84.3718 29.695 84.6135C29.5594 84.8553 29.5594 85.1575 29.6799 85.4143L35.0886 96.8069C35.2091 97.0789 35.4652 97.23 35.7213 97.23H107.767C108.038 97.23 108.279 97.0638 108.399 96.8069L113.808 85.4143C113.913 85.1575 113.898 84.8553 113.778 84.6135Z" fill="#BC5800"/>
<path d="M49.1902 94.949H42.1997C41.371 94.949 40.7081 94.1935 40.7081 93.2567C40.7081 92.3199 41.371 91.5645 42.1997 91.5645H49.1902C50.0189 91.5645 50.6818 92.3199 50.6818 93.2567C50.6818 94.1935 50.0189 94.949 49.1902 94.949Z" fill="#AA5000"/>
<path d="M53.8454 94.949H52.851C52.0224 94.949 51.3595 94.1935 51.3595 93.2567C51.3595 92.3199 52.0224 91.5645 52.851 91.5645H53.8454C54.674 91.5645 55.3369 92.3199 55.3369 93.2567C55.3369 94.1935 54.674 94.949 53.8454 94.949Z" fill="#AA5000"/>
<path d="M93.3484 91.7148H99.7364C100.49 91.7148 101.107 92.4099 101.107 93.256C101.107 94.1021 100.49 94.7972 99.7364 94.7972H93.3484C92.5951 94.7972 91.9774 94.1021 91.9774 93.256C91.9774 92.4099 92.5951 91.7148 93.3484 91.7148Z" fill="#AA5000"/>
<path d="M89.085 91.7148H90.0043C90.7577 91.7148 91.3756 92.4099 91.3756 93.256C91.3756 94.1021 90.7577 94.7972 90.0043 94.7972H89.085C88.3315 94.7972 87.7136 94.1021 87.7136 93.256C87.7136 92.4099 88.3315 91.7148 89.085 91.7148Z" fill="#AA5000"/>
<path d="M73.9586 92.1381C73.9586 93.0598 73.2957 93.8153 72.4821 93.8153H68.339C67.5254 93.8153 66.8625 93.0598 66.8625 92.1381C66.8625 91.2164 67.5254 90.4609 68.339 90.4609H72.4821C73.2957 90.4609 73.9586 91.2164 73.9586 92.1381Z" fill="#AA5000"/>
<path d="M77.9661 93.9817C77.9661 94.9336 77.2731 95.7193 76.4294 95.7193H72.1959C71.3522 95.7193 70.6592 94.9487 70.6592 93.9817C70.6592 93.0298 71.3522 92.2441 72.1959 92.2441H76.4294C77.2731 92.2441 77.9661 93.0298 77.9661 93.9817Z" fill="#AA5000"/>
<path d="M114.094 88.6475C114.094 88.995 113.853 89.267 113.537 89.267H28.9869C28.6856 89.267 28.4294 88.995 28.4294 88.6475V81.682C28.4294 81.3345 28.6705 81.0625 28.9869 81.0625H113.537C113.838 81.0625 114.094 81.3345 114.094 81.682V88.6475Z" fill="#DFDFDF"/>
<path d="M113.537 81.0625H112.964V87.5143C112.964 87.8618 112.723 88.1337 112.407 88.1337H28.4294V88.6626C28.4294 89.0101 28.6705 89.2821 28.9869 89.2821H113.537C113.838 89.2821 114.094 89.0101 114.094 88.6626V81.6971C114.094 81.3345 113.838 81.0625 113.537 81.0625Z" fill="#C3C3C3"/>
<path d="M36.4898 84.7192H32.5727C32.1056 84.7192 31.729 84.2962 31.729 83.7673C31.729 83.2385 32.1056 82.8154 32.5727 82.8154H36.4898C36.9569 82.8154 37.3335 83.2385 37.3335 83.7673C37.3335 84.2962 36.9569 84.7192 36.4898 84.7192Z" fill="white"/>
<path d="M39.1118 84.7192H38.5542C38.0871 84.7192 37.7103 84.2962 37.7103 83.7673C37.7103 83.2385 38.0871 82.8154 38.5542 82.8154H39.1118C39.579 82.8154 39.9557 83.2385 39.9557 83.7673C39.9407 84.2962 39.5639 84.7192 39.1118 84.7192Z" fill="white"/>
<path d="M81.6121 109.076H103.834C103.593 107.958 102.734 107.081 101.635 106.794C101.695 106.552 101.725 106.296 101.725 106.024C101.725 104.286 100.324 102.881 98.5913 102.881C98.0942 102.881 97.6271 103.002 97.2204 103.198C96.5575 101.717 95.081 100.705 93.3484 100.705C91.5254 100.705 89.9586 101.869 89.371 103.485C88.8437 103.138 88.226 102.941 87.5631 102.941C85.7401 102.941 84.2637 104.422 84.2637 106.25C84.2637 106.416 84.2787 106.568 84.2938 106.719C82.968 106.84 81.8832 107.807 81.6121 109.076Z" fill="#EAEAEA"/>
<path d="M37.8606 105.827H64.3615C64.0753 104.498 63.0508 103.44 61.725 103.108C61.8003 102.82 61.8455 102.503 61.8455 102.186C61.8455 100.116 60.1732 98.4387 58.1092 98.4387C57.5216 98.4387 56.9642 98.5747 56.467 98.8164C55.6685 97.0637 53.9058 95.8398 51.8568 95.8398C49.6723 95.8398 47.8192 97.2148 47.1111 99.1639C46.4934 98.756 45.7551 98.5142 44.9566 98.5142C42.7872 98.5142 41.0244 100.282 41.0244 102.458C41.0244 102.654 41.0395 102.836 41.0696 103.017C39.4877 103.168 38.192 104.316 37.8606 105.827Z" fill="#EAEAEA"/>
<path d="M70.7493 80.5481C89.529 80.5481 104.753 65.28 104.753 46.4459C104.753 27.6118 89.529 12.3438 70.7493 12.3438C51.9695 12.3438 36.7455 27.6118 36.7455 46.4459C36.7455 65.28 51.9695 80.5481 70.7493 80.5481Z" fill="#00D7FF"/>
<path d="M90.4296 66.1785C101.297 55.2802 101.297 37.6104 90.4296 26.7121C79.5627 15.8137 61.944 15.8137 51.077 26.7121C40.2101 37.6104 40.2101 55.2802 51.077 66.1785C61.944 77.0769 79.5627 77.0769 90.4296 66.1785Z" fill="white"/>
<path d="M70.7493 67.6152C82.4066 67.6152 91.8567 58.1378 91.8567 46.4468C91.8567 34.7558 82.4066 25.2783 70.7493 25.2783C59.092 25.2783 49.642 34.7558 49.642 46.4468C49.642 58.1378 59.092 67.6152 70.7493 67.6152Z" fill="#00D7FF"/>
<path d="M81.5873 57.3109C87.5709 51.31 87.5709 41.5806 81.5873 35.5797C75.6038 29.5789 65.9025 29.5789 59.9189 35.5797C53.9354 41.5806 53.9354 51.31 59.9189 57.3109C65.9025 63.3118 75.6038 63.3118 81.5873 57.3109Z" fill="white"/>
<path d="M78.8523 50.7048C81.1978 46.219 79.4733 40.6756 75.0004 38.3233C70.5276 35.971 65.0002 37.7005 62.6547 42.1863C60.3091 46.6721 62.0337 52.2155 66.5065 54.5678C70.9794 56.9201 76.5068 55.1906 78.8523 50.7048Z" fill="#00D7FF"/>
<path d="M71.3434 51.3981C74.07 51.072 76.0168 48.5909 75.6917 45.8565C75.3666 43.122 72.8927 41.1695 70.1661 41.4956C67.4395 41.8216 65.4927 44.3027 65.8178 47.0372C66.1429 49.7717 68.6168 51.7241 71.3434 51.3981Z" fill="white"/>
<path d="M90.3348 37.8185L93.348 25.8669L111.442 18.1006L107.751 29.5083L118.553 34.434L100.836 42.7744L90.3348 37.8185Z" fill="#FF7B00"/>
<path d="M70.1767 48.5162C69.5891 48.3047 69.092 47.8665 68.8208 47.2471C68.2935 46.0534 68.8208 44.6482 70.011 44.1194L109.393 26.4413C110.583 25.9124 111.985 26.4413 112.512 27.6349C113.039 28.8286 112.512 30.2337 111.322 30.7626L71.9394 48.4407C71.3669 48.7127 70.7342 48.7127 70.1767 48.5162Z" fill="#FF9557"/>
</svg>
